# xmcd
#
# Track frame offsets:
#	150
#	11835
#	25673
#	35578
#	48955
#	61160
#	73265
#	86323
#	99795
#	115813
#
# Disc length: 1774 seconds
# Revision: 0
# Processed by: cddbd v1.5.2PL0 Copyright (c) Steve Scherf et al.
# Submitted via: dBpowerAMP V12.0
#
DISCID=7406ec0a
DTITLE=Ray Charles - Friendship
DYEAR=1998
DGENRE=Blues
TTITLE0=Two Old Cats Like Us
TTITLE1=This Old Heart (Is Gonna Rise Again
TTITLE2=We Didn't See A Thing
TTITLE3=Who Cares
TTITLE4=Rock and Roll Shoes
TTITLE5=Friendship
TTITLE6=It Ain't Gonna Worry My Mind
TTITLE7=Little Hotel Room
TTITLE8=Crazy Old Soldier
TTITLE9=Seven Spanish Angels
EXTD=
EXTT0=
EXTT1=
EXTT2=
EXTT3=
EXTT4=
EXTT5=
EXTT6=
EXTT7=
EXTT8=
EXTT9=
PLAYORDER=
